<?xml version="1.0" encoding="utf-8"?>
<!-- Generator: Adobe Illustrator 16.0.0, SVG Export Plug-In . SVG Version: 6.00 Build 0)  -->
<!DOCTYPE svg PUBLIC "-//W3C//DTD SVG 1.1//EN" "http://www.w3.org/Graphics/SVG/1.1/DTD/svg11.dtd">
<svg version="1.1" id="Layer_1" xmlns="http://www.w3.org/2000/svg" xmlns:xlink="http://www.w3.org/1999/xlink" x="0px" y="0px"
	 width="100px" height="100px" viewBox="0 0 100 100" enable-background="new 0 0 100 100" xml:space="preserve">
<g>
	<path d="M23.455,52.459c-0.241,0.349-0.323,0.781-0.227,1.192c0.096,0.412,0.362,0.766,0.732,0.972l2.604,1.446v3.117
		c0,0.607,0.369,1.156,0.934,1.389l1.282,0.523l-0.777,0.776c-0.309,0.31-0.468,0.737-0.435,1.173
		c0.032,0.436,0.253,0.835,0.604,1.096l2.641,1.948v5.97c0,0.828,0.671,1.5,1.5,1.5h9.459l1.183,7.851
		c0.062,0.413,0.294,0.78,0.64,1.019c0.251,0.172,0.545,0.26,0.843,0.26c0.113,0,0.227-0.015,0.338-0.039l23.752-5.5
		c0.805-0.188,1.309-0.989,1.123-1.797l-2.299-10.021l1.35-6.1l7.777-9.603c0.217-0.268,0.334-0.601,0.334-0.944V33.811
		c0-0.238-0.061-0.473-0.164-0.685l-5-9.75c-0.148-0.289-0.391-0.522-0.684-0.665l-8.75-4.25c-0.176-0.085-0.363-0.136-0.563-0.147
		l-16-1c-0.301-0.022-0.602,0.054-0.862,0.209l-13,7.75c-0.323,0.192-0.562,0.499-0.669,0.859l-3.875,13
		c-0.172,0.578,0.019,1.203,0.484,1.587l1.527,1.258l-0.166,2.318L23.455,52.459z M31.767,40.151l-1.357-1.117l3.424-11.485
		l12.099-7.213l15.241,0.952l8.033,3.901l4.605,8.982v13.981l-7.666,9.464c-0.146,0.181-0.248,0.393-0.299,0.619l-1.5,6.772
		c-0.051,0.22-0.051,0.442,0.002,0.66l2.041,8.894L45.68,79.358l-1.133-7.521c-0.111-0.732-0.741-1.275-1.483-1.275h-9.25v-5.227
		c0-0.479-0.226-0.924-0.609-1.207l-1.848-1.363l1.143-1.144c0.355-0.354,0.509-0.865,0.41-1.356
		c-0.099-0.492-0.439-0.9-0.904-1.093l-2.441-0.993v-2.992c0-0.545-0.295-1.047-0.771-1.313l-1.929-1.07l4.935-7.141
		c0.153-0.221,0.243-0.478,0.262-0.746l0.25-3.5C32.342,40.934,32.142,40.461,31.767,40.151z"/>
	<path d="M34.985,39.332l-1.07,2.721c-0.167,0.425-0.131,0.903,0.097,1.299c0.229,0.396,0.625,0.665,1.076,0.733l2.892,0.435
		l0.931,2.773c0.145,0.433,0.479,0.775,0.909,0.932c0.429,0.155,0.907,0.109,1.296-0.13l2.495-1.525l2.495,1.525
		c0.238,0.146,0.51,0.221,0.783,0.221c0.173,0,0.347-0.03,0.513-0.091c0.429-0.156,0.764-0.499,0.909-0.932l0.931-2.773l2.89-0.435
		c0.453-0.068,0.852-0.338,1.076-0.733c0.23-0.396,0.268-0.874,0.1-1.299l-1.07-2.721l1.938-2.192
		c0.305-0.343,0.434-0.804,0.355-1.254c-0.08-0.449-0.359-0.839-0.76-1.057l-2.57-1.397l0.074-2.924
		c0.012-0.456-0.189-0.894-0.535-1.188c-0.351-0.293-0.815-0.414-1.263-0.32l-2.867,0.58l-1.822-2.287
		c-0.569-0.715-1.777-0.715-2.347,0L40.62,29.58L37.753,29c-0.449-0.093-0.912,0.027-1.262,0.32
		c-0.35,0.294-0.547,0.729-0.535,1.188l0.074,2.924l-2.569,1.397c-0.401,0.218-0.681,0.607-0.76,1.057
		c-0.08,0.45,0.05,0.911,0.353,1.254L34.985,39.332z M38.267,35.627c0.495-0.269,0.797-0.792,0.783-1.355L39,32.313l1.92,0.389
		c0.553,0.114,1.12-0.095,1.471-0.535l1.221-1.532l1.221,1.532c0.351,0.44,0.92,0.65,1.471,0.535l1.92-0.389l-0.05,1.959
		c-0.014,0.563,0.288,1.087,0.783,1.355l1.721,0.937l-1.297,1.469c-0.373,0.422-0.478,1.018-0.271,1.542l0.716,1.823l-1.938,0.291
		c-0.557,0.084-1.02,0.473-1.199,1.006l-0.624,1.858l-1.671-1.022c-0.24-0.147-0.511-0.221-0.783-0.221s-0.542,0.073-0.783,0.221
		l-1.671,1.022l-0.624-1.858c-0.179-0.533-0.642-0.922-1.199-1.006l-1.936-0.292l0.716-1.823c0.206-0.524,0.101-1.12-0.271-1.542
		l-1.297-1.469L38.267,35.627z"/>
	<path d="M43.61,42.437c2.413,0,4.375-1.963,4.375-4.375s-1.962-4.375-4.375-4.375c-2.413,0-4.375,1.963-4.375,4.375
		S41.198,42.437,43.61,42.437z M43.61,36.687c0.758,0,1.375,0.617,1.375,1.375s-0.617,1.375-1.375,1.375
		c-0.758,0-1.375-0.617-1.375-1.375S42.854,36.687,43.61,36.687z"/>
	<path d="M54.148,38.516c-0.4,0.218-0.684,0.607-0.76,1.057c-0.08,0.45,0.051,0.911,0.354,1.254l1.434,1.623l-0.791,2.016
		c-0.168,0.425-0.131,0.903,0.098,1.299s0.625,0.665,1.076,0.733l2.143,0.321l0.689,2.054c0.145,0.433,0.479,0.775,0.906,0.932
		c0.434,0.156,0.906,0.109,1.299-0.13l1.85-1.13l1.848,1.13c0.238,0.146,0.51,0.221,0.783,0.221c0.172,0,0.346-0.03,0.512-0.091
		c0.43-0.156,0.766-0.499,0.91-0.932l0.689-2.054l2.141-0.321c0.453-0.068,0.848-0.338,1.076-0.733
		c0.229-0.396,0.264-0.874,0.098-1.299l-0.793-2.016l1.436-1.623c0.301-0.342,0.432-0.804,0.354-1.254
		c-0.08-0.449-0.357-0.839-0.762-1.057l-1.9-1.035l0.057-2.165c0.014-0.457-0.189-0.894-0.533-1.188
		c-0.355-0.294-0.814-0.413-1.264-0.32l-2.123,0.43l-1.354-1.693c-0.564-0.715-1.773-0.715-2.346,0l-1.35,1.693l-2.123-0.43
		c-0.449-0.092-0.914,0.027-1.262,0.32c-0.35,0.294-0.547,0.731-0.535,1.188l0.055,2.165L54.148,38.516z M58.291,39.675
		c0.494-0.269,0.797-0.793,0.783-1.354l-0.031-1.2l1.176,0.238c0.553,0.112,1.121-0.095,1.473-0.535l0.748-0.938l0.75,0.938
		c0.35,0.44,0.918,0.648,1.471,0.535l1.178-0.238l-0.027,1.2c-0.018,0.563,0.287,1.087,0.779,1.354l1.059,0.574l-0.795,0.899
		c-0.373,0.422-0.48,1.018-0.271,1.542l0.439,1.117l-1.189,0.179c-0.557,0.084-1.02,0.473-1.199,1.007l-0.381,1.138l-1.023-0.626
		c-0.24-0.147-0.514-0.221-0.783-0.221c-0.271,0-0.543,0.073-0.783,0.221l-1.021,0.626l-0.383-1.138
		c-0.18-0.534-0.645-0.923-1.197-1.007l-1.189-0.179l0.439-1.117c0.205-0.524,0.1-1.12-0.273-1.542l-0.793-0.899L58.291,39.675z"/>
	<path d="M62.439,45.175c2.1,0,3.807-1.708,3.807-3.808c0-2.1-1.707-3.808-3.807-3.808c-2.102,0-3.811,1.708-3.811,3.808
		C58.631,43.467,60.338,45.175,62.439,45.175z M62.439,40.561c0.441,0,0.807,0.362,0.807,0.808c0,0.446-0.361,0.808-0.807,0.808
		c-0.447,0-0.811-0.362-0.811-0.808C61.631,40.921,61.994,40.561,62.439,40.561z"/>
</g>
</svg>
